<svg width="24" height="24" viewBox="0 0 24 24" fill="none" xmlns="http://www.w3.org/2000/svg">
<g clip-path="url(#clip0_1230_23366)">
<path d="M9.41762 5.73291H6.69653C6.67731 5.73275 6.65841 5.73782 6.64186 5.74759C6.6253 5.75736 6.61172 5.77145 6.60258 5.78836L3.77881 10.9615V12.3221C3.77949 12.485 3.8447 12.6411 3.96016 12.756C4.07563 12.871 4.23195 12.9356 4.3949 12.9356H6.31507C6.60157 12.9356 6.88034 12.8427 7.10962 12.6709C7.33889 12.4991 7.50632 12.2577 7.58679 11.9827L9.41762 5.73291Z" fill="#8C9BB0"/>
<path d="M14.5918 5.73291H17.3129C17.3321 5.73291 17.3509 5.73805 17.3674 5.7478C17.384 5.75755 17.3976 5.77156 17.4068 5.78836L20.2286 10.9615V12.3221C20.2286 12.485 20.164 12.6413 20.049 12.7568C19.934 12.8723 19.778 12.9375 19.615 12.9381H17.6928C17.4063 12.9382 17.1275 12.8454 16.8982 12.6736C16.6689 12.5018 16.5015 12.2603 16.4211 11.9853L14.5918 5.73291Z" fill="#8C9BB0"/>
<path d="M15.137 11.0719L13.6481 5.73242H10.3443L8.85542 11.0719C8.84263 11.1171 8.84571 11.1653 8.86415 11.2085L9.25075 12.1249C9.35203 12.3657 9.52207 12.5713 9.73959 12.716C9.95712 12.8606 10.2125 12.9379 10.4737 12.9382H13.5167C13.778 12.9382 14.0335 12.8611 14.2512 12.7167C14.4689 12.5722 14.6392 12.3667 14.7407 12.126L15.1273 11.2095C15.1463 11.1661 15.1497 11.1175 15.137 11.0719Z" fill="#8C9BB0"/>
<path d="M18.0054 14.0162C17.3755 14.0171 16.7629 13.8099 16.2629 13.4268V17.3349H7.74585V13.4273C7.24596 13.8102 6.63355 14.0172 6.00385 14.0162C5.9525 14.0162 5.90476 14.0162 5.85547 14.012V18.5912C5.85547 18.7593 5.92227 18.9206 6.04118 19.0395C6.16009 19.1584 6.32137 19.2252 6.48953 19.2252H17.5197C17.6029 19.2252 17.6854 19.2088 17.7623 19.177C17.8392 19.1451 17.909 19.0984 17.9679 19.0395C18.0267 18.9806 18.0734 18.9107 18.1052 18.8338C18.137 18.7569 18.1533 18.6744 18.1532 18.5912V14.0126C18.1045 14.0162 18.0552 14.0162 18.0054 14.0162Z" fill="#8C9BB0"/>
</g>
<defs>
<clipPath id="clip0_1230_23366">
<rect width="24" height="24" fill="white"/>
</clipPath>
</defs>
</svg>
